Encoder : Ratzz.





Source : Amiable thanks.


General

Title                            : Hugo 2011 1080p BluRay X264 Ratzz


Format                           : MP4
Format profile                   : Base Media
Codec ID                         : isom
File size                        : 1.50 GiB
Duration                         : 2h 6mn
Overall bit rate                 : 1 700 Kbps

Video
ID                               : 1
Format                           : AVC
Format/Info                      : Advanced Video Codec
Format profile                   : High@L5.0
Format settings, CABAC           : Yes
Format settings, ReFrames        : 2 frames
Duration                         : 2h 6mn
Bit rate mode                    : Variable
Bit rate                         : 1 632 Kbps
Maximum bit rate                 : 169 Mbps
Width                            : 1 920 pixels
Height                           : 1 080 pixels
Display aspect ratio             : 16:9
Frame rate mode                  : Constant
Frame rate                       : 23.976 fps
Color space                      : YUV
Chroma subsampling               : 4:2:0
Bit depth                        : 8 bits
Scan type                        : Progressive
Bits/(Pixel*Frame)               : 0.033
Stream size                      : 1.44 GiB (96%)

Audio
ID                               : 2
Format                           : AAC
Format/Info                      : Advanced Audio Codec
Format profile                   : HE-AAC / LC
Codec ID                         : 40
Duration                         : 2h 6mn
Bit rate mode                    : Variable
Bit rate                         : 64.0 Kbps
Maximum bit rate                 : 71.2 Kbps
Channel(s)                       : 2 channels
Channel positions                : Front: L R
Sampling rate                    : 48.0 KHz / 24.0 KHz
Compression mode                 : Lossy
Stream size                      : 57.8 MiB (4%)
Language                         : English



Subtitles : .srt eng file included.







plsssss seed atleast after download.
give ratings and comments if you like.